Results
version=1
nRows=29
nColumns=24
inDegrees=yes
endheader
time	pelvis_tilt	pelvis_list	pelvis_rotation	pelvis_tx	pelvis_ty	pelvis_tz	hip_flexion_r	hip_adduction_r	hip_rotation_r	knee_angle_r	ankle_angle_r	subtalar_angle_r	mtp_angle_r	hip_flexion_l	hip_adduction_l	hip_rotation_l	knee_angle_l	ankle_angle_l	subtalar_angle_l	mtp_angle_l	lumbar_extension	lumbar_bending	lumbar_rotation
      1.05700000	     -7.70356730	     -1.15305755	      3.05822194	      0.50328773	      1.00236498	      0.34311181	     18.39008318	      4.60007303	      2.34416088	    -20.78345781	      9.54053288	     -9.15061166	      2.43393909	     24.72587039	     -1.21093194	      0.75181850	    -68.59414202	      1.26265958	     -2.19122164	      6.52714543	     -3.41455766	      8.77921437	     -1.19659999
      1.06116667	     -7.67464773	     -1.01595707	      2.90316918	      0.50789323	      1.00317813	      0.34345595	     17.86971622	      4.52948686	      2.53999101	    -20.37718644	      9.56753282	     -9.15917257	      2.44240327	     25.23803823	     -1.18694050	      0.56159012	    -68.14492305	      1.82359394	     -1.94360269	      6.47988066	     -3.49795026	      8.56478200	     -0.89398775
      1.06533333	     -7.65930372	     -0.88947755	      2.75198362	      0.51250264	      1.00394067	      0.34378402	     17.36051225	      4.46567802	      2.74109016	    -19.96225668	      9.58950039	     -9.17796178	      2.45103121	     25.75211537	     -1.17166688	      0.38312516	    -67.64997390	      2.34883134	     -1.72252982	      6.42448625	     -3.56640348	      8.36505885	     -0.59001957
      1.06950000	     -7.63391461	     -0.72141063	      2.58575816	      0.51709602	      1.00468730	      0.34407986	     16.85714634	      4.35161740	      2.93709550	    -19.58240862	      9.61078512	     -9.13794841	      2.45644229	     26.22941370	     -1.11072019	      0.18857363	    -67.09050536	      2.83461250	     -1.57229545	      6.39751617	     -3.64606793	      8.14150689	     -0.41374630
      1.07366667	     -7.59993923	     -0.58047551	      2.42938502	      0.52172079	      1.00541473	      0.34437058	     16.32993770	      4.26292141	      3.13406907	    -19.17234669	      9.65177907	     -9.12001561	      2.46226178	     26.68530531	     -1.07962326	      0.01379018	    -66.48962292	      3.28953640	     -1.39824841	      6.36503038	     -3.72766001	      7.93496955	     -0.14348416
      1.07783333	     -7.54520502	     -0.47581555	      2.27782820	      0.52636251	      1.00611813	      0.34466303	     15.76783844	      4.21102474	      3.32895898	    -18.73095758	      9.70205900	     -9.15706729	      2.47128755	     27.11185880	     -1.09324529	     -0.15041667	    -65.85859323	      3.69024445	     -1.23259552	      6.30131107	     -3.82939691	      7.74346491	      0.24945221
      1.08200000	     -7.50804694	     -0.34178567	      2.11427703	      0.53099274	      1.00676103	      0.34492012	     15.24005198	      4.12055936	      3.52462980	    -18.32379385	      9.74605802	     -9.14019787	      2.48078727	     27.53300433	     -1.06680062	     -0.31550468	    -65.16954180	      4.05397159	     -1.14401523	      6.23664155	     -3.91039240	      7.54816397	      0.51899616
      1.08616667	     -7.46262567	     -0.20707407	      1.95078467	      0.53563453	      1.00739290	      0.34516112	     14.70133341	      4.02356370	      3.71330715	    -17.91184061	      9.79240110	     -9.10446976	      2.49069017	     27.92579357	     -1.03594675	     -0.46851182	    -64.42922703	      4.37565254	     -1.08441547	      6.16968649	     -4.00042733	      7.35462638	      0.78729040
      1.09033333	     -7.43571917	     -0.05478495	      1.77291598	      0.54027319	      1.00795651	      0.34537796	     14.19607578	      3.90123301	      3.89721472	    -17.52660288	      9.82616226	     -9.02335527	      2.49750433	     28.31661098	     -0.98385511	     -0.62704874	    -63.63788472	      4.66124120	     -1.07374343	      6.13091954	     -4.06410211	      7.16815177	      0.96258864
      1.09450000	     -7.38282968	      0.07499170	      1.59954985	      0.54493240	      1.00851542	      0.34558506	     13.65184087	      3.79879728	      4.07888636	    -17.11770378	      9.88692096	     -8.95414029	      2.50524645	     28.66489538	     -0.95247909	     -0.76334815	    -62.80826880	      4.90064376	     -1.08014928	      6.08488207	     -4.15780833	      6.98990336	      1.23001980
      1.09866667	     -7.30715340	      0.19201889	      1.43621685	      0.54961178	      1.00907231	      0.34578169	     13.07471893	      3.70391275	      4.23914753	    -16.69208055	      9.97835002	     -8.90120901	      2.51647742	     28.97409836	     -0.92996856	     -0.87988712	    -61.93888881	      5.08480021	     -1.12641622	      6.01492905	     -4.27791487	      6.79659180	      1.57037574
      1.10283333	     -7.24615602	      0.32371793	      1.26006133	      0.55428314	      1.00956259	      0.34595219	     12.52541714	      3.58661699	      4.39832516	    -16.29006550	     10.05605856	     -8.79705193	      2.52876016	     29.27693449	     -0.88588703	     -0.99041303	    -61.02087546	      5.23939014	     -1.20741781	      5.94471119	     -4.37985512	      6.61700260	      1.83025865
      1.10700000	     -7.18755217	      0.44646953	      1.08062827	      0.55897160	      1.01000816	      0.34611710	     11.97888082	      3.47414290	      4.55233666	    -15.88764740	     10.13671799	     -8.68723680	      2.54090315	     29.56446342	     -0.84850780	     -1.08773323	    -60.06308380	      5.35746177	     -1.31210416	      5.87743571	     -4.47106632	      6.45060727	      2.08576416
      1.11116667	     -7.11937502	      0.56221457	      0.90255130	      0.56367187	      1.01043673	      0.34626093	     11.41747177	      3.36251458	      4.69797857	    -15.47417017	     10.21583835	     -8.56042519	      2.55390806	     29.82271504	     -0.81128296	     -1.16376842	    -59.06275708	      5.43720478	     -1.44610107	      5.80805671	     -4.57734783	      6.29121624	      2.34343381
      1.11533333	     -7.05763607	      0.68353434	      0.71995133	      0.56837740	      1.01081344	      0.34638807	     10.87079725	      3.23898839	      4.83196099	    -15.07743055	     10.31031587	     -8.41768316	      2.56756148	     30.06624380	     -0.76258194	     -1.22694981	    -58.01629802	      5.47615422	     -1.60870568	      5.73836973	     -4.67202672	      6.13032038	      2.59817710
      1.11950000	     -7.00662205	      0.79236648	      0.52641231	      0.57308841	      1.01112463	      0.34651814	     10.33688119	      3.12525446	      4.97590265	    -14.67919116	     10.35948930	     -8.25100293	      2.57735655	     30.30414209	     -0.72863419	     -1.28080815	    -56.93659065	      5.49583552	     -1.76438408	      5.68956035	     -4.75037463	      5.99767321	      2.79472481
      1.12366667	     -6.92230953	      0.89653408	      0.34399925	      0.57782089	      1.01144697	      0.34662997	      9.76119820	      3.00979107	      5.09522703	    -14.27115401	     10.45627920	     -8.08909919	      2.58869061	     30.48670305	     -0.68931156	     -1.30631899	    -55.81342851	      5.46579373	     -1.97241401	      5.63573494	     -4.86984965	      5.85495040	      3.04683641
      1.12783333	     -6.82712464	      0.99514789	      0.17023401	      0.58255946	      1.01172657	      0.34671199	      9.17995591	      2.89262518	      5.17976737	    -13.87808396	     10.60865774	     -7.91338873	      2.60468272	     30.64201139	     -0.64622103	     -1.30644255	    -54.65816295	      5.40450691	     -2.20108475	      5.56557261	     -4.99779957	      5.70970867	      3.34655635
      1.13200000	     -6.76430984	      1.09795433	     -0.02272051	      0.58730203	      1.01193959	      0.34680908	      8.63807875	      2.76922721	      5.29327390	    -13.48882410	     10.68235759	     -7.70726465	      2.61723687	     30.80554828	     -0.60267719	     -1.30217507	    -53.45239465	      5.31940292	     -2.40480361	      5.50879062	     -5.08707178	      5.57559870	      3.56220106
      1.13616667	     -6.67936715	      1.16699079	     -0.20148706	      0.59204379	      1.01210026	      0.34688581	      8.06962233	      2.67652799	      5.37983236	    -13.09390423	     10.79756868	     -7.50696022	      2.63151437	     30.93872641	     -0.58464882	     -1.26194394	    -52.23275941	      5.20831807	     -2.64150316	      5.44773995	     -5.20562399	      5.47476429	      3.81768007
      1.14033333	     -6.58472583	      1.25236136	     -0.38056602	      0.59680194	      1.01224008	      0.34695211	      7.50069434	      2.56047167	      5.44390863	    -12.72257417	     10.95329790	     -7.29482651	      2.64960214	     31.03426609	     -0.54580546	     -1.20801785	    -50.96221589	      5.07092951	     -2.88790549	      5.37542175	     -5.32611312	      5.35108497	      4.08866973
      1.14450000	     -6.50737909	      1.31771196	     -0.55607472	      0.60155890	      1.01229973	      0.34699924	      6.94763874	      2.46111912	      5.50222199	    -12.34279333	     11.10017888	     -7.06131649	      2.67097654	     31.13737587	     -0.52252468	     -1.12944881	    -49.67015246	      4.91302049	     -3.13126664	      5.29200192	     -5.44642555	      5.25475165	      4.35403428
      1.14866667	     -6.42058300	      1.36241046	     -0.73164010	      0.60631472	      1.01231282	      0.34705461	      6.38924585	      2.38250166	      5.55921771	    -11.97204798	     11.22323427	     -6.84047428	      2.69231041	     31.21385601	     -0.52083959	     -1.03051726	    -48.34840859	      4.73763638	     -3.36019159	      5.21154906	     -5.55996386	      5.18189274	      4.59406677
      1.15283333	     -6.33858931	      1.40746419	     -0.90739101	      0.61107600	      1.01226894	      0.34710670	      5.83999852	      2.30067695	      5.60931770	    -11.60972292	     11.36063382	     -6.61172543	      2.71625733	     31.27601353	     -0.51762894	     -0.91753917	    -46.99186873	      4.53904140	     -3.58929715	      5.12769862	     -5.67094566	      5.10583756	      4.83424704
      1.15700000	     -6.27387319	      1.44934277	     -1.08532180	      0.61584912	      1.01217455	      0.34716073	      5.30771643	      2.21909680	      5.65647767	    -11.23975634	     11.45088317	     -6.38468493	      2.73624188	     31.33465546	     -0.52180251	     -0.80007820	    -45.59558916	      4.30923115	     -3.79331094	      5.05913817	     -5.76878663	      5.04266262	      5.04439335
      1.16116667	     -6.16177606	      1.46055246	     -1.24628345	      0.62061233	      1.01206687	      0.34718933	      4.73044688	      2.16621548	      5.68003803	    -10.88953316	     11.62209673	     -6.15938756	      2.76590122	     31.32952645	     -0.54133723	     -0.62469344	    -44.17658674	      4.08388032	     -4.03083580	      4.97017594	     -5.91212212	      4.99989862	      5.30131874
      1.16533333	     -6.09699619	      1.46098858	     -1.41202728	      0.62536694	      1.01183440	      0.34723401	      4.21009437	      2.12560875	      5.70979472	    -10.54784327	     11.75724130	     -5.93529037	      2.79847985	     31.36177246	     -0.58091381	     -0.44945980	    -42.73500567	      3.83444908	     -4.23260008	      4.87936401	     -6.00638039	      4.97286145	      5.53637612
      1.16950000	     -6.00168747	      1.44529645	     -1.57106327	      0.63013201	      1.01161218	      0.34727304	      3.65092180	      2.09924444	      5.73234226	    -10.19421599	     11.87731445	     -5.72419962	      2.83289692	     31.34080803	     -0.63557452	     -0.25595288	    -41.25999151	      3.57356631	     -4.41723426	      4.78976043	     -6.13738195	      4.96272253	      5.75827055
      1.17366667	     -5.95402307	      1.42638712	     -1.73285339	      0.63489182	      1.01125885	      0.34732009	      3.15287383	      2.07632421	      5.75432860	     -9.85933066	     11.96578610	     -5.51857037	      2.86293086	     31.35416511	     -0.70211732	     -0.06273561	    -39.75565063	      3.28496521	     -4.57405119	      4.71589962	     -6.21450707	      4.96691461	      5.96000750
